<svg id="Capa_1" enable-background="new 0 0 512 512" height="512" viewBox="0 0 512 512" width="512" xmlns="http://www.w3.org/2000/svg"><g><path d="m298.782 242.678c-3.936 3.932-6.036 5.822-10.746 5.822-4.709 0-6.81-1.89-10.745-5.821-4.313-4.31-10.22-10.211-21.348-10.211-11.119 0-17.018 5.904-21.326 10.215-3.926 3.929-6.021 5.817-10.715 5.817-4.691 0-6.786-1.889-10.711-5.817-4.307-4.311-10.205-10.215-21.322-10.215-4.142 0-7.5 3.358-7.5 7.5s3.358 7.5 7.5 7.5c4.691 0 6.786 1.889 10.71 5.816 4.307 4.312 10.206 10.216 21.323 10.216 11.118 0 17.018-5.904 21.325-10.215 3.926-3.929 6.021-5.817 10.715-5.817 4.709 0 6.81 1.89 10.746 5.822 4.312 4.309 10.219 10.21 21.347 10.21s17.035-5.901 21.348-10.211c3.935-3.932 6.036-5.821 10.745-5.821 4.142 0 7.5-3.358 7.5-7.5s-3.358-7.5-7.5-7.5c-11.127 0-17.033 5.901-21.346 10.21z"/><path d="m256 47.064c4.142 0 7.5-3.358 7.5-7.5v-32.064c0-4.142-3.358-7.5-7.5-7.5s-7.5 3.358-7.5 7.5v32.064c0 4.143 3.358 7.5 7.5 7.5z"/><path d="m488.468 232.468h-32.064c-4.142 0-7.5 3.358-7.5 7.5s3.358 7.5 7.5 7.5h32.064c4.142 0 7.5-3.358 7.5-7.5s-3.358-7.5-7.5-7.5z"/><path d="m63.097 239.968c0-4.142-3.358-7.5-7.5-7.5h-32.065c-4.142 0-7.5 3.358-7.5 7.5s3.358 7.5 7.5 7.5h32.064c4.143 0 7.501-3.358 7.501-7.5z"/><path d="m50.927 130.229 27.769 16.032c1.181.682 2.471 1.006 3.743 1.006 2.592 0 5.113-1.346 6.502-3.751 2.071-3.587.842-8.174-2.745-10.245l-27.769-16.032c-3.587-2.072-8.174-.842-10.245 2.745s-.842 8.174 2.745 10.245z"/><path d="m461.073 349.707-27.769-16.032c-3.587-2.072-8.174-.842-10.245 2.745s-.842 8.174 2.745 10.245l27.769 16.032c1.181.682 2.471 1.006 3.743 1.006 2.592 0 5.113-1.346 6.502-3.751 2.071-3.588.842-8.175-2.745-10.245z"/><path d="m352.452 72.909c1.181.682 2.471 1.006 3.743 1.006 2.592 0 5.113-1.346 6.502-3.751l16.032-27.769c2.071-3.587.842-8.174-2.745-10.245s-8.174-.842-10.245 2.745l-16.032 27.769c-2.072 3.587-.843 8.174 2.745 10.245z"/><path d="m159.548 407.027c-3.587-2.072-8.174-.842-10.245 2.745l-16.032 27.769c-2.071 3.587-.842 8.174 2.745 10.245 1.181.682 2.471 1.006 3.743 1.006 2.592 0 5.113-1.345 6.502-3.751l16.032-27.769c2.072-3.587.843-8.174-2.745-10.245z"/><path d="m429.561 147.268c1.272 0 2.562-.324 3.743-1.006l27.769-16.032c3.587-2.071 4.816-6.658 2.745-10.245s-6.658-4.816-10.245-2.745l-27.769 16.032c-3.587 2.071-4.816 6.658-2.745 10.245 1.389 2.405 3.91 3.751 6.502 3.751z"/><path d="m78.696 333.674-27.769 16.032c-3.587 2.071-4.816 6.658-2.745 10.245 1.389 2.406 3.91 3.751 6.502 3.751 1.272 0 2.562-.324 3.743-1.006l27.769-16.032c3.587-2.071 4.816-6.658 2.745-10.245s-6.658-4.815-10.245-2.745z"/><path d="m149.303 70.164c1.389 2.406 3.91 3.751 6.502 3.751 1.272 0 2.562-.324 3.743-1.006 3.587-2.071 4.816-6.658 2.745-10.245l-16.032-27.769c-2.071-3.587-6.658-4.815-10.245-2.745-3.587 2.071-4.816 6.658-2.745 10.245z"/><path d="m362.697 409.772c-2.071-3.587-6.658-4.816-10.245-2.745s-4.816 6.658-2.745 10.245l16.032 27.769c1.389 2.406 3.91 3.751 6.502 3.751 1.272 0 2.562-.324 3.743-1.006 3.587-2.071 4.816-6.658 2.745-10.245z"/><path d="m391.578 128.067c-2.638-3.193-7.365-3.644-10.559-1.005-3.193 2.639-3.643 7.366-1.004 10.559 23.747 28.74 36.824 65.087 36.824 102.346 0 30.687-8.69 60.507-25.132 86.237-16 25.039-38.572 45.161-65.275 58.191-7.312 3.568-13.185 9.394-16.991 16.41h-19.368l37.252-126.658c1.168-3.974-1.105-8.143-5.079-9.312-3.974-1.168-8.143 1.105-9.312 5.079l-38.497 130.891h-36.873l-38.497-130.891c-1.168-3.974-5.339-6.247-9.312-5.079-3.974 1.169-6.248 5.338-5.079 9.312l37.252 126.658h-19.35c-3.792-7.009-9.64-12.82-16.92-16.367-27.488-13.393-50.52-34.213-66.605-60.209-16.566-26.774-24.8-57.69-23.81-89.405 1.245-39.899 17.583-77.899 46.004-107 28.428-29.107 66.025-46.316 105.866-48.457 40.542-2.175 80.046 10.814 111.234 36.584 3.194 2.639 7.921 2.188 10.559-1.004 2.638-3.193 2.188-7.921-1.004-10.559-34.099-28.174-77.283-42.379-121.593-40-90.296 4.852-163.237 79.511-166.059 169.97-1.082 34.67 7.925 68.477 26.047 97.765 17.58 28.411 42.75 51.165 72.791 65.801 8.08 3.937 13.3 12.493 13.3 21.798v28.665c0 17.396 14.152 31.548 31.548 31.548h.516v8.532c0 12.976 10.557 23.532 23.532 23.532h16.032c12.976 0 23.532-10.557 23.532-23.532v-8.532h.516c17.396 0 31.548-14.152 31.548-31.548v-28.671c0-9.295 5.258-17.867 13.396-21.838 29.183-14.241 53.851-36.232 71.337-63.596 17.986-28.146 27.493-60.759 27.493-94.314.001-40.739-14.297-80.479-40.26-111.901zm-86.747 287.74c-.129 1.293-.218 2.594-.218 3.909v6.134l-97.226 13.89v-20.017c0-1.317-.089-2.621-.218-3.916zm-32.283 72.661c0 4.705-3.828 8.532-8.532 8.532h-16.032c-4.705 0-8.532-3.828-8.532-8.532v-8.532h33.097v8.532zm15.516-23.532h-64.129c-6.885 0-12.797-4.229-15.287-10.224l95.964-13.709v7.385c.001 9.124-7.423 16.548-16.548 16.548z"/></g></svg>